PathFileType        4      (X/Y/Z)      C:\Users\cpontonn\Documents\TRAVAIL - COURS\FORMATION DOCTORALE\COURS AUTOMNE\DATA\ESCRIME PROPRE\C3Ds\trial10.trc         
DataRate	CameraRate	NumFrames	NumMarkers	Units	OrigDataRate	OrigDataStartFrame	OrigNumFrames
250.0	250.0	5	45	mm	250.0	663	883
Frame#	Time	LCAR			LFHD			LBHD			RFHD			RBHD			C7			T10			CLAV			STRN			LSHO			LUPA			LRAD			LHUM			LWRB			LWRA			RSHO			RBAC			RUPA			RRAD			RHUM			RWRB			RWRA			RCAR			LFWT			LBWT			RFWT			RBWT			LTHI			LKNE			LKNI			LANE			LANI			LHEE			LTAR			LTARI			LTOE			RTHI			RKNE			RKNI			RANE			RANI			RHEE			RTAR			RTARI			RTOE			
		X1	Y1	Z1	X2	Y2	Z2	X3	Y3	Z3	X4	Y4	Z4	X5	Y5	Z5	X6	Y6	Z6	X7	Y7	Z7	X8	Y8	Z8	X9	Y9	Z9	X10	Y10	Z10	X11	Y11	Z11	X12	Y12	Z12	X13	Y13	Z13	X14	Y14	Z14	X15	Y15	Z15	X16	Y16	Z16	X17	Y17	Z17	X18	Y18	Z18	X19	Y19	Z19	X20	Y20	Z20	X21	Y21	Z21	X22	Y22	Z22	X23	Y23	Z23	X24	Y24	Z24	X25	Y25	Z25	X26	Y26	Z26	X27	Y27	Z27	X28	Y28	Z28	X29	Y29	Z29	X30	Y30	Z30	X31	Y31	Z31	X32	Y32	Z32	X33	Y33	Z33	X34	Y34	Z34	X35	Y35	Z35	X36	Y36	Z36	X37	Y37	Z37	X38	Y38	Z38	X39	Y39	Z39	X40	Y40	Z40	X41	Y41	Z41	X42	Y42	Z42	X43	Y43	Z43	X44	Y44	Z44	X45	Y45	Z45	
663	2.648	2673.22144	889.37762	167.48287999999988	2090.05713	1343.11011	144.70612999999994	1992.10254	1319.56055	124.42365999999996	2077.03052	1370.79797	358.71068999999994	1959.88745	1334.39612	361.71999999999997	1904.76477	1213.37634	188.29184999999998	1752.07739	995.84119	129.74007999999995	1968.46265	1084.39771	301.45083999999997	1922.30591	930.74188	322.74560999999994	2063.2583	1103.80627	130.23198999999994	2145.61206	1039.27087	170.9492199999999	2281.93188	923.0036	111.15205999999992	2253.09399	863.85114	157.53950999999992	2523.20044	810.88635	150.99544999999992	2533.88794	900.08582	195.6513699999999	1792.40063	1222.66919	339.83370999999994	1738.88452	1163.32068	199.32239999999996	1622.44836	1103.84119	402.64712999999995	1502.51538	1100.72034	373.93184999999994	1516.8717	1034.23376	311.52181999999993	1450.22607	919.46552	579.1646699999999	1545.43945	910.03564	575.9646599999999	1512.23157	903.01794	653.4202299999998	1886.55713	730.04333	206.57480999999996	1690.72839	802.2016	98.49757999999994	1708.15503	743.15869	358.33135999999996	1638.91504	811.09796	152.70540999999994	1958.61096	670.36609	79.20117999999992	2168.69312	501.81549	114.0285899999999	2167.00513	478.53482	255.53184999999988	2211.14307	101.00216999999999	136.07715999999985	2197.67065	110.84676999999999	230.40023999999985	2135.17969	60.667849999999994	166.36670999999987	2355.13086	37.46985999999999	147.55233999999984	2328.86377	49.491449999999986	252.96296999999987	2407.90723	50.47650999999998	240.72425999999984	1507.76819	384.59238	389.4241899999999	1390.79431	381.45175	350.80532999999997	1469.60938	289.30942	292.0274699999999	1086.04626	156.9278	135.01168999999993	1147.48181	76.96520999999998	148.21291999999994	1102.10718	98.27572	64.96991999999993	1008.23541	96.71135999999998	259.57192999999995	1091.70569	23.29094999999998	262.35213999999996	1060.90918	44.82634999999998	333.79705999999993	
664	2.652	2665.95532	886.66046	164.95249999999987	2083.38281	1347.0332	145.13431999999997	1985.53162	1323.13428	124.56869999999996	2069.85059	1374.55615	359.16347999999994	1952.7793	1337.76465	361.77654999999993	1898.26746	1216.3877	188.40159999999997	1746.81384	997.77985	129.81376999999995	1962.57605	1087.64978	301.5953099999999	1917.13354	933.77997	322.84710999999993	2056.9397	1107.15833	129.71061999999995	2139.40967	1041.64661	170.1194199999999	2274.55444	924.00861	109.65113999999991	2245.27173	865.06775	155.9970099999999	2515.05396	810.10461	149.34089999999992	2526.78296	899.34894	193.7532699999999	1785.82898	1225.00757	339.89602999999994	1732.63928	1165.38159	199.48034999999996	1616.49304	1105.828	403.25573999999995	1496.57581	1101.92371	374.76577999999995	1511.02063	1035.32239	312.59292999999997	1445.49109	920.97241	580.4568499999999	1540.68835	911.91589	577.2044699999999	1507.52087	905.10327	655.0147699999999	1882.23206	732.37268	207.18879999999993	1686.42578	803.6767	98.57577999999994	1703.87268	745.15021	358.43023999999997	1634.25989	812.57654	152.69375999999994	1954.63525	671.28522	79.80990999999993	2163.71582	501.4137	114.7202499999999	2162.22314	477.92612	255.96424999999988	2210.75122	100.84565999999998	135.97652999999985	2197.3252	110.46760999999998	230.31502999999987	2135.18384	60.35222999999999	166.31716999999986	2355.1521	37.54261999999999	147.39080999999985	2328.94385	49.686779999999985	252.74853999999985	2408.01685	51.03351999999999	240.38091999999986	1505.47766	385.46371	388.84224999999986	1388.43677	381.7644	350.2111499999999	1467.81299	290.09363	291.2574499999999	1084.90381	156.00851	134.15169999999995	1146.81189	76.39109999999998	147.49523999999994	1101.01782	97.18967	64.09385999999994	1007.69696	96.30537999999999	259.07842999999997	1092.60889	24.435109999999984	264.3375199999999	1060.76721	45.070259999999976	333.39196999999996	
665	2.656	2658.62231	883.77673	161.5588699999999	2076.67871	1350.94885	145.53716999999997	1978.96313	1326.73926	124.77879999999996	2062.50781	1378.31238	359.53155999999996	1945.57568	1341.16357	361.88833999999997	1891.58093	1219.58972	188.48450999999997	1741.47473	999.78241	129.91466999999994	1956.64856	1090.96545	301.67205999999993	1911.95117	936.93829	323.04876999999993	2050.53442	1110.57788	129.19205999999994	2133.05859	1044.10498	169.24895999999993	2267.01855	925.00122	108.13995999999992	2237.30786	866.29248	154.3809699999999	2506.56763	809.11121	147.65519999999992	2519.62622	898.45441	191.68921999999992	1779.17407	1227.3988	340.0493799999999	1726.22815	1167.47693	199.70000999999996	1610.51599	1107.81531	403.93236999999993	1490.6106	1103.15979	375.64162999999996	1505.12952	1036.46155	313.6105299999999	1440.71692	922.51746	581.7900399999999	1535.97388	913.7973	578.1709599999999	1502.83862	906.87213	656.0413799999999	1877.84204	733.95911	207.06295999999995	1681.88806	805.20789	98.65502999999994	1699.4386	747.14294	358.47277999999994	1629.93225	814.14471	152.70954999999995	1950.66174	672.23602	80.43831999999993	2158.65894	500.96378	115.4744299999999	2157.13721	477.20428	256.43227999999993	2210.37622	100.68909999999998	136.11176999999986	2196.90771	110.11213999999998	230.27978999999985	2135.12256	60.022499999999994	166.27486999999985	2355.14453	37.71126999999999	147.33545999999987	2328.94312	49.914909999999985	252.57477999999986	2408.03442	51.76339999999998	239.96949999999987	1503.16882	386.31256	388.34163999999987	1386.09656	382.07745	349.64205999999996	1466.05994	290.92505	290.54534999999987	1083.76208	155.17262	133.27666999999994	1146.09668	75.88442999999998	146.79813999999993	1099.94275	95.94267	63.45387999999994	1007.20416	95.85472999999999	258.67443999999995	1092.13428	24.907049999999984	263.79281999999995	1060.51416	45.41976999999998	333.16817999999995	
666	2.66	2650.74609	880.46527	158.68387999999987	2069.92798	1354.88684	146.01330999999996	1972.30627	1330.39844	125.00616999999997	2055.12866	1382.10034	359.95055999999994	1938.30493	1344.58813	362.07296999999994	1884.84436	1222.74902	188.66628999999998	1736.05652	1001.85815	130.03708999999995	1950.67554	1094.32739	301.75170999999995	1906.59387	940.11682	323.23162999999994	2044.00525	1114.01099	128.64814999999993	2126.66357	1046.60876	168.37430999999992	2259.36792	925.92285	106.59241999999992	2229.2168	867.54156	152.76363999999992	2497.8667	807.7793	146.0355199999999	2512.31299	897.35187	189.5372299999999	1772.43323	1229.83252	340.22426999999993	1719.84106	1169.68079	199.93726999999998	1604.45667	1109.94263	404.70217999999994	1484.55469	1104.43054	376.45861999999994	1499.13416	1037.6178	314.66826999999995	1435.99084	924.09058	582.9840099999999	1531.23096	915.8443	579.1680299999999	1497.91162	909.07715	657.5742799999999	1873.37866	735.93469	207.71998999999994	1677.66675	806.80347	98.77820999999994	1694.75293	749.10687	357.96300999999994	1625.37512	815.77435	152.66686999999993	1946.60266	673.19452	81.07588999999993	2153.54126	500.63428	115.9070299999999	2151.88599	476.37738	256.97213999999997	2209.87939	100.53151999999999	136.02585999999985	2196.36304	109.72076999999999	230.21232999999987	2135.04907	59.687689999999996	166.19661999999985	2355.08179	37.848549999999996	147.22260999999986	2328.90137	50.22920999999999	252.34313999999986	2408.0061	52.539779999999986	239.61657999999986	1500.85474	387.18353	387.8219899999999	1383.61255	382.34268	349.05056999999994	1464.26855	291.85968	289.80721999999986	1082.54419	154.31059	132.40745999999993	1145.38513	75.36991999999998	146.15223999999995	1098.86816	94.88232	62.617219999999946	1006.72528	95.51867999999999	258.24264999999997	1092.36279	24.532829999999983	263.75710999999995	1060.45178	45.71851999999998	332.96435999999994	
667	2.664	2642.45874	877.505	155.6156199999999	2063.073	1358.85791	146.52392999999998	1965.55847	1333.9762	125.29774999999997	2047.71667	1385.92993	360.3184499999999	1930.91943	1348.06494	362.2167099999999	1878.06775	1225.94104	188.91880999999998	1730.60181	1004.00995	130.18242999999995	1944.57971	1097.70776	301.8627599999999	1901.22998	943.31378	323.3306299999999	2037.44238	1117.4364	128.10503999999995	2120.15845	1049.19922	167.50799999999992	2251.59888	926.84167	104.98975999999992	2221.00854	868.9057	151.15198999999993	2488.88232	806.24188	144.0565499999999	2504.80029	895.79999	186.93278999999993	1765.65344	1232.28625	340.4200399999999	1713.35571	1171.91907	200.21537999999998	1598.38977	1111.94751	405.28267999999997	1478.44507	1105.71582	377.29159999999996	1493.11938	1038.84399	315.73848999999996	1431.22571	925.63141	584.2588499999999	1526.5022	917.82904	580.4653899999998	1493.0896	911.13788	658.9834599999999	1868.79736	737.93579	208.29336999999995	1673.26355	808.46155	98.89544999999994	1690.07373	751.17474	357.78481999999997	1620.72253	817.49426	152.63463999999996	1942.52502	674.16919	81.67398999999993	2148.30493	500.19897	116.6924099999999	2146.39233	475.48422	257.6150799999999	2209.34058	100.37855999999998	135.89084999999986	2195.83667	109.49576999999998	230.07346999999984	2134.93115	59.34340999999999	166.10665999999986	2354.96973	38.03061999999999	147.14530999999985	2328.80542	50.609009999999984	252.15316999999985	2407.95264	53.35149999999999	239.35326999999987	1498.50635	388.10269	387.2706899999999	1381.26624	382.70795	348.44945999999993	1462.49805	292.81467	289.1663499999999	1081.43994	153.45755	131.60341999999994	1144.72778	74.88378999999999	145.53338999999994	1097.8446	93.63782	62.027089999999944	1006.23193	95.11196999999999	257.76171999999997	1092.00342	24.325319999999984	263.0521499999999	1060.4325	46.259369999999976	332.84380999999996	
